<svg width="22" height="19" viewBox="0 0 22 19" fill="none" xmlns="http://www.w3.org/2000/svg">
<g clip-path="url(#clip0_1160_3493)">
<path d="M21.4883 17.863H0.488281L10.9883 0.469833L21.4883 17.863ZM10.9785 3.48615L3.26279 16.3314H18.7236L10.9785 3.48615Z" fill="white"/>
<path d="M10.1289 14.405C10.1289 14.1607 10.2171 13.954 10.3838 13.7849C10.5505 13.6157 10.7662 13.5218 11.0407 13.5218C11.3152 13.5218 11.5113 13.6063 11.6779 13.7755C11.8446 13.9446 11.9328 14.1513 11.9328 14.3863C11.9328 14.6212 11.8446 14.8373 11.6779 15.0064C11.5113 15.1756 11.2956 15.2695 11.0211 15.2695C10.7466 15.2695 10.5505 15.185 10.3838 15.0064C10.2171 14.8279 10.1289 14.6306 10.1289 14.3956V14.405ZM11.6681 12.178H10.3838V6.75618H11.6681V12.178Z" fill="white"/>
</g>
<defs>
<clipPath id="clip0_1160_3493">
<rect width="22" height="19" fill="white"/>
</clipPath>
</defs>
</svg>
