<?xml version="1.0" encoding="UTF-8"?>
<svg id="Lager_2" data-name="Lager 2" xmlns="http://www.w3.org/2000/svg" viewBox="0 0 18.07 17.85">
  <g id="Lager_2-2" data-name="Lager 2">
    <g>
      <path d="M9.44,3.83H1.49v12.67h12.63v-7.79h1.46s0,9.13,0,9.13H0V2.49h9.44"/>
      <path d="M18.07,0v6.23h-.96c-.06-.14-.12-.36-.16-.66s-.07-.63-.1-1.01c-.02-.38-.04-.76-.06-1.15-.02-.39-.03-.75-.05-1.09l-7.39,7.46h-.98c0-.38.05-.69.16-.92.1-.23.29-.48.56-.75L15.86,1.34c-.33-.02-.7-.03-1.09-.05-.39-.02-.77-.04-1.14-.07s-.7-.07-1.01-.11c-.3-.04-.54-.08-.7-.13v-.98h6.13Z"/>
    </g>
  </g>
</svg>