<svg width="52" height="52" viewBox="0 0 52 52" fill="none" xmlns="http://www.w3.org/2000/svg">
<g clip-path="url(#clip0_458_1317)">
<path d="M26 0C11.6393 0 0 11.6393 0 26C0 40.3563 11.6393 52 26 52C40.3607 52 52 40.3563 52 26C52 11.6393 40.3563 0 26 0ZM32.721 25.9957L28.4613 26L28.457 41.6H22.6113V26H18.7113V20.6267L22.6113 20.6223L22.6027 17.4547C22.6027 13.065 23.79 10.4 28.9553 10.4H33.2583V15.7777H30.5717C28.561 15.7777 28.4613 16.5273 28.4613 17.9313L28.4527 20.6223H33.2887L32.721 25.9957Z" fill="white"/>
</g>
<defs>
<clipPath id="clip0_458_1317">
<rect width="52" height="52" fill="white"/>
</clipPath>
</defs>
</svg>
