<svg width="52" height="52" viewBox="0 0 52 52" fill="none" xmlns="http://www.w3.org/2000/svg">
<rect width="52" height="52" rx="26" fill="white"/>
<path d="M25.9375 18.7129C30.0625 18.7129 33.3496 22.0645 33.3496 26.125C33.3496 30.25 29.998 33.5371 25.9375 33.5371C21.8125 33.5371 18.5254 30.1855 18.5254 26.125C18.5254 22 21.877 18.7129 25.9375 18.7129ZM25.9375 21.291C23.2305 21.3555 21.1035 23.4824 21.1035 26.125C21.168 28.832 23.2949 30.959 25.9375 30.959C28.6445 30.8945 30.7715 28.7676 30.7715 26.125C30.707 23.418 28.5801 21.291 25.9375 21.291ZM31.9316 18.3906C31.9316 19.3574 32.7051 20.1309 33.6719 20.1309C34.6387 20.1309 35.4121 19.3574 35.4121 18.3906C35.4121 17.4238 34.6387 16.7148 33.6719 16.7148C32.7051 16.7148 31.9316 17.4238 31.9316 18.3906ZM40.3105 20.1953C40.4395 22.5801 40.4395 29.6699 40.3105 32.0547C40.1816 34.375 39.666 36.4375 37.9902 38.1133C36.25 39.8535 34.252 40.3691 31.9316 40.4336C29.5469 40.627 22.3926 40.627 20.0078 40.4336C17.6875 40.3691 15.625 39.7891 13.9492 38.1133C12.2734 36.4375 11.6934 34.375 11.6289 32.0547C11.5 29.6699 11.5 22.5156 11.6289 20.1309C11.7578 17.875 12.2734 15.8125 13.9492 14.1367C15.625 12.3965 17.6875 11.8809 20.0078 11.752C22.3926 11.623 29.5469 11.623 31.9316 11.752C34.252 11.8809 36.25 12.3965 37.9902 14.1367C39.666 15.8125 40.1816 17.875 40.3105 20.1953ZM37.2168 34.6328C37.9902 32.7637 37.7969 28.252 37.7969 26.125C37.7969 23.998 37.9902 19.4863 37.2168 17.6172C36.7012 16.3281 35.7344 15.3613 34.4453 14.8457C32.5762 14.1367 28.0645 14.2656 25.9375 14.2656C23.875 14.2656 19.3633 14.1367 17.4297 14.8457C16.2051 15.3613 15.1738 16.3281 14.7227 17.6172C13.9492 19.4863 14.1426 23.998 14.1426 26.125C14.1426 28.252 13.9492 32.7637 14.7227 34.6328C15.2383 35.9219 16.2051 36.8887 17.4297 37.4043C19.3633 38.1133 23.875 37.9844 25.9375 37.9844C28.0645 37.9844 32.5762 38.1133 34.4453 37.4043C35.7344 36.8887 36.7012 35.9219 37.2168 34.6328Z" fill="#002B49"/>
</svg>
