<svg width="52" height="52" viewBox="0 0 52 52" fill="none" xmlns="http://www.w3.org/2000/svg">
<rect width="52" height="52" rx="26" fill="white"/>
<path d="M19.5781 36H14.8555V20.8164H19.5781V36ZM17.2422 18.7344C15.7188 18.7344 14.5 17.5156 14.5 15.9922C14.5 15.2812 14.8047 14.5703 15.3125 14.0625C15.8203 13.5547 16.5312 13.25 17.2422 13.25C17.9531 13.25 18.6641 13.5547 19.1719 14.0625C19.6797 14.5703 19.9844 15.2812 19.9844 15.9922C19.9844 17.5156 18.7656 18.7344 17.2422 18.7344ZM37.25 36H32.5273V28.5859C32.5273 26.8594 32.5273 24.5742 30.0898 24.5742C27.6523 24.5742 27.2461 26.5039 27.2461 28.4844V36H22.5234V20.8164H27.0938V22.8984H27.1445C27.7539 21.6797 29.3281 20.4102 31.6133 20.4102C36.3867 20.4102 37.25 23.5586 37.25 27.6719V36Z" fill="#002B49"/>
</svg>
